#tb 0: 1/25
0,          0,          0,        1,  1382400, 0x6ef5c76e
0,          1,          1,        1,  1382400, 0x975238be
0,          2,          2,        1,  1382400, 0xe5529a79
0,          3,          3,        1,  1382400, 0x639641d4
0,          4,          4,        1,  1382400, 0x566eb1df
0,          5,          5,        1,  1382400, 0x4fd4b46a
0,          6,          6,        1,  1382400, 0xfb4a6a0e
0,          7,          7,        1,  1382400, 0x4485af32
